# xmcd CD database file
#
# Track frame offsets:
#	150
#	21670
#	62840
#	95292
#	126907
#	142020
#
# Disc length: 2341 seconds
#
# Revision: 0
# Processed by: cddbd v1.5.2PL0 Copyright (c) Steve Scherf et al.
# Submitted via: CDex 1.70beta3
#
DISCID=57092306
DTITLE=Jackie McLean - Jackie's Bag
DYEAR=1960
DGENRE=Jazz
TTITLE0=Quadrangle
TTITLE1=Blues Inn
TTITLE2=Fidel
TTITLE3=Appointment In Ghana
TTITLE4=A Ballad For Doll
TTITLE5=Isle Of Java
EXTD=YEAR: 1960
EXTT0=
EXTT1=
EXTT2=
EXTT3=
EXTT4=
EXTT5=
PLAYORDER=
